<?xml version="1.0" standalone="no"?>
<!DOCTYPE svg PUBLIC "-//W3C//DTD SVG 20010904//EN"
 "http://www.w3.org/TR/2001/REC-SVG-20010904/DTD/svg10.dtd">
<svg version="1.0" xmlns="http://www.w3.org/2000/svg"
 width="820.000000pt" height="512.000000pt" viewBox="0 0 820.000000 512.000000"
 preserveAspectRatio="xMidYMid meet">

<g transform="translate(0.000000,512.000000) scale(0.100000,-0.100000)"
fill="#000000" stroke="none">
<path d="M3937 4685 c-340 -56 -616 -248 -790 -550 -170 -294 -181 -688 -28
-1000 155 -318 438 -534 784 -600 102 -19 292 -19 394 0 638 121 1028 757 847
1382 -81 279 -291 531 -551 662 -200 100 -447 140 -656 106z"/>
<path d="M3309 2217 c-329 -289 -483 -473 -607 -730 -117 -239 -192 -574 -192
-854 l0 -73 1590 0 1590 0 0 68 c0 100 -18 274 -40 392 -70 372 -226 670 -500
954 -84 87 -326 307 -411 373 -13 11 -32 6 -106 -26 -183 -80 -337 -112 -533
-112 -199 0 -348 32 -533 112 -50 21 -91 39 -93 39 -1 0 -76 -65 -165 -143z"/>
</g>
</svg>
